<svg width="45" height="30" viewBox="0 0 45 30" fill="none" xmlns="http://www.w3.org/2000/svg">
<path d="M44.9212 0.669261V27.162C44.9212 27.5385 44.6284 27.8313 44.2519 27.8313H42.9134C42.5369 27.8313 42.2441 27.5385 42.2441 27.162V0.711092C42.2441 0.669261 42.2441 0.669261 42.2441 0.669261C42.2441 0.334632 42.5369 0 42.9134 0H44.2519C44.6284 0 44.9212 0.334632 44.9212 0.669261Z" fill="#000000"/>
<path d="M39.5243 25.1538C39.9008 25.1538 40.1936 25.4884 40.1936 25.8231V27.1616C40.1936 27.5381 39.9008 27.8309 39.5243 27.8309H34.5885C33.8356 27.8309 33.25 27.2453 33.25 26.4923V0.683909C33.25 0.34928 33.5428 0.0146484 33.9193 0.0146484H35.2578C35.5924 0.0146484 35.927 0.34928 35.927 0.683909V25.1538H39.5243Z" fill="#000000"/>
<path d="M30.5347 0.0146484C30.9112 0.0146484 31.204 0.34928 31.204 0.683909V2.02243C31.204 2.39889 30.9112 2.6917 30.5347 2.6917H28.6524V27.1616C28.6524 27.5381 28.3596 27.8309 27.9832 27.8309H26.6447C26.2682 27.8309 25.9754 27.5381 25.9754 27.1616V2.6917H24.0931C23.7166 2.6917 23.4238 2.39889 23.4238 2.02243V0.683909C23.4238 0.34928 23.7166 0.0146484 24.0931 0.0146484H30.5347Z" fill="#000000"/>
<path d="M18.6964 23.0205V4.8668C18.6964 3.65376 17.7343 2.6917 16.5631 2.6917C15.3501 2.6917 14.388 3.65376 14.388 4.8668V23.0205C14.388 24.1917 15.3501 25.1538 16.5631 25.1538C17.7343 25.1538 18.6964 24.1917 18.6964 23.0205ZM16.5631 0.0146484C19.1983 0.0146484 21.3734 2.18975 21.3734 4.8668V23.0205C21.3734 25.6976 19.1983 27.8309 16.5631 27.8309C13.886 27.8309 11.7109 25.6976 11.7109 23.0205V4.8668C11.7109 2.18975 13.886 0.0146484 16.5631 0.0146484Z" fill="#000000"/>
<path fill-rule="evenodd" clip-rule="evenodd" d="M2.67669 4.86777V23.0215C2.67669 24.1927 3.63875 25.1548 4.80996 25.1548C6.0225 25.1548 6.98428 24.1935 6.98506 23.0229V21.3482L6.98506 4.86777C6.98506 3.65474 6.023 2.69267 4.80996 2.69267C3.63875 2.69267 2.67669 3.65474 2.67669 4.86777ZM9.66211 21.3482V4.86777C9.66211 2.19073 7.48701 0.015625 4.80996 0.015625C2.17474 0.015625 -0.000362396 2.19073 -0.000362396 4.86777V23.0215C-0.000362396 25.6986 2.17474 27.8318 4.80996 27.8318C5.59168 27.8318 6.3306 27.6499 6.98506 27.3257V29.3312C6.98506 29.7077 7.27786 30.0005 7.65432 30.0005H8.99285C9.36931 30.0005 9.66211 29.7077 9.66211 29.3312V23.0215V21.3482Z" fill="#000000"/>
</svg>
